<svg xmlns="http://www.w3.org/2000/svg" width="13" height="16" viewBox="0 0 13 16"><g><g><path fill="#fff" d="M12.869 10.472C12.396 13.592 9.755 16 6.499 16 2.91 16 0 13.092 0 9.505a6.498 6.498 0 0 1 7.773-6.367L6.31 1.702a1.007 1.007 0 0 1 0-1.416.986.986 0 0 1 1.403 0l3 2.964a1.006 1.006 0 0 1 0 1.416L7.705 7.701a.986.986 0 0 1-1.403 0 1.007 1.007 0 0 1 0-1.416l1.152-1.162a4.46 4.46 0 0 0-.954-.115A4.498 4.498 0 0 0 2 9.505 4.498 4.498 0 0 0 6.5 14c2.314 0 4.198-1.751 4.45-3.996H11a1 1 0 0 1 2 0 .972.972 0 0 1-.131.467z"/></g></g></svg>