<svg xmlns="http://www.w3.org/2000/svg" width="13" height="15" viewBox="0 0 13 15"><g><g><path fill="#fff" d="M12.071 5.625h-.928v7.5A1.866 1.866 0 0 1 9.286 15H3.714a1.866 1.866 0 0 1-1.857-1.875v-7.5H.93A.933.933 0 0 1 0 4.687c0-.517.416-.937.929-.937h2.785V.937C3.714.42 4.13 0 4.643 0h3.714c.513 0 .929.42.929.937V3.75h2.785c.513 0 .929.42.929.937a.933.933 0 0 1-.929.938zm-7.428 0a.933.933 0 0 0-.929.937v5.625c0 .518.416.938.929.938.513 0 .928-.42.928-.938V6.562a.933.933 0 0 0-.928-.937zm2.786-2.813a.933.933 0 0 0-.929-.937.933.933 0 0 0-.929.937v.938H7.43zm1.857 3.75a.933.933 0 0 0-.929-.937.933.933 0 0 0-.928.937v5.625c0 .518.415.938.928.938.513 0 .929-.42.929-.938z"/></g></g></svg>